<svg id="Layer_30" enable-background="new 0 0 504.695 500.801" height="300" viewBox="0 0 504.695 500.801" width="300" xmlns="http://www.w3.org/2000/svg" version="1.1" xmlns:xlink="http://www.w3.org/1999/xlink" xmlns:svgjs="http://svgjs.dev/svgjs"><g width="100%" height="100%" transform="matrix(1,0,0,1,0,0)"><g><g><path d="m156.8 252.801c10.65 0 21.025-1.721 30.953-5.11l31.169-69.017c6.013-13.315 19.268-21.873 33.878-21.873 0-52.935-43.065-96-96-96s-96 43.065-96 96 43.066 96 96 96z" fill="#dd844c" fill-opacity="1" data-original-color="#f0bc5eff" stroke="none" stroke-opacity="1"/></g><g><path d="m476.8 260.801h-120v16h120c4.411 0 8 3.589 8 8s-3.589 8-8 8h-64c-13.234 0-24 10.767-24 24s10.766 24 24 24h40c4.411 0 8 3.589 8 8s-3.589 8-8 8h-24v16h24c13.234 0 24-10.767 24-24s-10.766-24-24-24h-40c-4.411 0-8-3.589-8-8s3.589-8 8-8h64c13.234 0 24-10.767 24-24s-10.766-24-24-24z" fill="#000000" fill-opacity="1" data-original-color="#000000ff" stroke="none" stroke-opacity="1"/><path d="m229.822 94.555c10.261-2.368 18.244-10.925 19.751-21.477.611-4.274 4.022-7.686 8.297-8.296l13.197-1.885-2.262-15.84-13.197 1.885c-11.27 1.609-20.265 10.604-21.875 21.873-.611 4.274-4.023 7.687-8.298 8.297l-10.333 1.477c5.385 4.128 10.32 8.811 14.72 13.966z" fill="#000000" fill-opacity="1" data-original-color="#000000ff" stroke="none" stroke-opacity="1"/><path d="m144.177 61.631c4.132-.545 8.344-.831 12.623-.831 2.574 0 5.123.105 7.646.305 5.551-8.924 5.138-20.592-1.246-29.105-2.591-3.455-2.591-8.28 0-11.734l8-10.664-12.8-9.602-7.999 10.665c-6.831 9.107-6.831 21.828-.001 30.935 2.591 3.454 2.591 8.279 0 11.733z" fill="#000000" fill-opacity="1" data-original-color="#000000ff" stroke="none" stroke-opacity="1"/><path d="m70.815 79.867c4.274.61 7.687 4.022 8.297 8.297l1.476 10.333c4.128-5.383 8.811-10.318 13.966-14.718-2.368-10.262-10.924-18.245-21.475-19.752-4.275-.61-7.687-4.022-8.297-8.298l-1.885-13.196-15.839 2.262 1.884 13.196c1.609 11.269 10.603 20.265 21.873 21.876z" fill="#000000" fill-opacity="1" data-original-color="#000000ff" stroke="none" stroke-opacity="1"/><path d="m41.6 163.2c3.454-2.59 8.278-2.591 11.733.001l8.298 6.223c-.545-4.132-.831-8.345-.831-12.623 0-2.574.105-5.123.305-7.646-8.925-5.552-20.593-5.14-29.105 1.246-3.455 2.589-8.281 2.59-11.735 0l-10.665-7.999-9.6 12.798 10.665 7.999c9.105 6.831 21.826 6.831 30.935.001z" fill="#000000" fill-opacity="1" data-original-color="#000000ff" stroke="none" stroke-opacity="1"/><path d="m83.778 219.047c-10.261 2.368-18.244 10.925-19.751 21.477-.611 4.274-4.022 7.686-8.297 8.296l-13.197 1.885 2.262 15.84 13.197-1.885c11.27-1.609 20.265-10.604 21.875-21.873.611-4.274 4.023-7.687 8.298-8.297l10.333-1.477c-5.384-4.129-10.32-8.812-14.72-13.966z" fill="#000000" fill-opacity="1" data-original-color="#000000ff" stroke="none" stroke-opacity="1"/><path d="m120.218 209.292 9.164-13.115c-12.888-9.006-20.582-23.726-20.582-39.376 0-26.468 21.533-48 48-48v-16c-35.29 0-64 28.71-64 64 0 20.872 10.25 40.495 27.418 52.491z" fill="#000000" fill-opacity="1" data-original-color="#000000ff" stroke="none" stroke-opacity="1"/><path d="m344.869 288.087-19.549-43.286h179.374l-23.655-14.784c-39.458-24.661-66.952-63.213-77.416-108.554l-1.632-7.075c-4.02-17.42-19.313-29.587-37.192-29.587s-33.172 12.167-37.191 29.587l-1.633 7.075c-5.161 22.363-14.84 43.675-28.203 62.34l-3.804-8.422c-7.292-16.146-23.452-26.58-41.169-26.58s-33.877 10.434-41.169 26.58l-50.9 112.706c-4.38 9.7-8.982 19.27-13.792 28.714h-118.138c-13.234 0-24 10.767-24 24s10.766 24 24 24h32c4.411 0 8 3.589 8 8s-3.589 8-8 8h-8c-13.234 0-24 10.767-24 24s10.766 24 24 24h22.308c-16.121 20.359-33.452 39.83-51.965 58.343l-13.656 13.657h486.627l-13.657-13.657c-57.707-57.707-103.999-124.68-137.588-199.057zm27.931-110.123c5.54 11.607 12.097 22.746 19.656 33.345 4.324 6.064 8.962 11.904 13.855 17.492h-33.511zm-16 50.837h-33.504c4.888-5.584 9.528-11.434 13.848-17.491 7.558-10.599 14.116-21.738 19.656-33.345zm29.602-110.816 1.633 7.075c5.645 24.462 15.898 47.229 30.475 67.669 9.648 13.528 20.876 25.598 33.54 36.071h-23.796c-8.283-8.211-15.939-17.202-22.771-26.782-15.505-21.742-26.493-45.923-32.682-71.88v-27.846c6.707 2.576 11.898 8.316 13.601 15.693zm-44.836 7.076 1.633-7.075c1.702-7.377 6.893-13.117 13.602-15.693v27.846c-6.189 25.958-17.177 50.14-32.682 71.881-3.608 5.06-7.455 9.965-11.493 14.672l-7.341-16.255c17.451-22.038 29.961-47.991 36.281-75.376zm-288.766 287.74c-4.411 0-8-3.589-8-8s3.589-8 8-8h8c13.234 0 24-10.767 24-24s-10.766-24-24-24h-32c-4.411 0-8-3.589-8-8s3.589-8 8-8h109.714c-15.161 27.895-32.222 54.602-51.117 80zm192-77.753c-24.744 53.276-55.555 103.626-91.62 149.753h-20.451c40.427-49.95 74.347-104.963 100.912-163.786l11.159-24.709zm0 36.333v113.419h-71.434c26.956-35.633 50.882-73.624 71.434-113.419zm16 0c20.553 39.795 44.479 77.786 71.434 113.42h-71.434zm0-36.333v-38.742l11.159 24.709c26.565 58.823 60.485 113.835 100.912 163.786h-20.451c-36.064-46.125-66.875-96.476-91.62-149.753zm25.741-20.619-25.741-56.998v-38.873l40.323 89.286c29.103 64.441 67.252 123.888 113.515 176.957h-21.035c-43.241-51.525-79.263-108.818-107.062-170.372zm-41.741-56.998-25.741 56.998c-27.799 61.556-63.822 118.848-107.062 170.372h-21.035c46.263-53.068 84.412-112.514 113.515-176.957l40.323-89.286zm191.249 227.37c-49.465-54.509-89.949-116.239-120.344-183.543l-50.899-112.705c-2.126-4.709-6.838-7.752-12.005-7.752-5.166 0-9.878 3.042-12.005 7.75l-50.9 112.707c-30.396 67.305-70.88 129.036-120.345 183.543h-21.805c52.931-55.905 95.797-119.779 127.567-190.128l50.9-112.706c4.709-10.428 15.145-17.166 26.587-17.166s21.878 6.738 26.587 17.166l50.9 112.706c31.77 70.349 74.637 134.223 127.567 190.128z" fill="#000000" fill-opacity="1" data-original-color="#000000ff" stroke="none" stroke-opacity="1"/></g></g></g></svg>